<svg xmlns="http://www.w3.org/2000/svg" version="1.1" xmlns:xlink="http://www.w3.org/1999/xlink" xmlns:svgjs="http://svgjs.dev/svgjs" width="1500" height="1500" viewBox="0 0 1500 1500"><rect width="1500" height="1500" fill="#000000"></rect><g transform="matrix(0.6666666666666666,0,0,0.6666666666666666,250.00131562500025,187.66666666666674)"><svg viewBox="0 0 320 360" data-background-color="#ffffff" preserveAspectRatio="xMidYMid meet" height="1687" width="1500" xmlns="http://www.w3.org/2000/svg" xmlns:xlink="http://www.w3.org/1999/xlink"><g id="tight-bounds" transform="matrix(1,0,0,1,-0.00042100000007394556,0)"><svg viewBox="0 0 320 360" height="360" width="320"><g><svg></svg></g><g><svg viewBox="0 0 320 360" height="360" width="320"><g><path transform="translate(-9.31575,10.66434) scale(0.39811,0.39811)" d="M827.2 486c-0.2-21.2-13.6-38-13.8-59.2-0.1-21.2 13.1-46.8 12.9-68-6.7-20.1-24.7-31.9-31.4-52-6.7-20.1-2.1-48.6-8.7-68.7-12.6-17.1-33.4-22.7-45.9-39.7-12.6-17.1-17-45.6-29.5-62.6-17.2-12.3-38.7-11.3-56-23.6-17.2-12.3-30.2-38.1-47.5-50.4-20.2-6.4-40.3 1.3-60.5-5.2-20.2-6.4-40.5-26.9-60.7-33.3-21.2 0.2-38 13.6-59.2 13.8-21.2 0.1-46.8-13.1-68-12.9-20.1 6.7-31.9 24.7-52 31.4-20.1 6.7-48.6 2.1-68.7 8.8-17.1 12.6-22.7 33.4-39.7 45.9-17.1 12.6-45.6 17-62.6 29.6-12.3 17.2-11.3 38.7-23.6 56-12.3 17.2-38.1 30.2-50.4 47.5-6.4 20.2 1.2 40.3-5.2 60.5-6.4 20.2-26.9 40.5-33.3 60.7 0.1 21.2 13.6 38 13.8 59.2 0.1 21.2-13.1 46.8-12.9 68 6.7 20.1 24.7 31.9 31.4 52 6.7 20.1 2.1 48.6 8.8 68.7 12.6 17.1 33.4 22.7 45.9 39.8 12.6 17.1 17 45.6 29.5 62.6 17.2 12.3 38.7 11.3 56 23.6 17.2 12.3 30.2 38.1 47.5 50.4 20.2 6.4 40.3-1.2 60.5 5.2 20.2 6.4 40.5 26.9 60.7 33.3 21.2-0.2 38-13.6 59.2-13.8 21.2-0.1 46.8 13.1 68 12.9 20.1-6.7 31.9-24.7 52-31.4 20.1-6.7 48.6-2.1 68.7-8.8 17.1-12.6 22.7-33.4 39.8-45.9 17.1-12.6 45.6-17 62.6-29.5 12.3-17.2 11.3-38.7 23.6-56 12.3-17.2 38.1-30.2 50.4-47.5 6.4-20.2-1.2-40.3 5.2-60.5 6.2-20.4 26.7-40.7 33.1-60.9zM792 544.4c-9.1 17.9-31.4 33.8-40.6 51.7-9.1 17.9-5.1 37.9-14.2 55.8-14.2 14.2-40.3 22.4-54.6 36.6-14.2 14.2-16.5 34.5-30.8 48.7-17.9 9.1-45.3 8.8-63.2 18-17.9 9.1-26.4 27.7-44.3 36.8-19.9 3.1-45.8-5.6-65.7-2.5-19.9 3.1-33.7 18.2-53.5 21.3-19.9-3.1-41.8-19.5-61.7-22.6-19.9-3.2-37.6 6.9-57.5 3.7-17.9-9.1-33.8-31.5-51.7-40.6-17.9-9.1-37.9-5.1-55.9-14.2-14.2-14.2-22.4-40.3-36.6-54.6-14.2-14.2-34.5-16.6-48.7-30.8-9.1-17.9-8.8-45.3-18-63.2-9.1-17.9-27.7-26.4-36.8-44.3-3.1-19.9 5.6-45.8 2.5-65.7-3.2-19.9-18.2-33.7-21.3-53.5 3.2-19.9 19.5-41.8 22.6-61.7 3.1-19.9-6.9-37.6-3.7-57.5 9.1-17.9 31.5-33.8 40.6-51.7 9.1-17.9 5.1-37.9 14.2-55.9 14.2-14.2 40.3-22.4 54.6-36.6 14.2-14.2 16.6-34.5 30.8-48.7 17.9-9.1 45.3-8.8 63.2-18 17.9-9.1 26.4-27.7 44.3-36.8 19.9-3.1 45.8 5.6 65.7 2.5 19.9-3.1 33.7-18.2 53.5-21.3 19.9 3.1 41.8 19.5 61.7 22.6 19.9 3.2 37.6-6.9 57.5-3.7 17.9 9.1 33.8 31.5 51.7 40.6 17.9 9.1 37.9 5.1 55.9 14.2 14.2 14.2 22.4 40.3 36.6 54.6 14.2 14.2 34.5 16.6 48.7 30.8 9.1 17.9 8.8 45.3 18 63.2 9.1 17.9 27.7 26.4 36.8 44.3 3.2 19.9-5.6 45.8-2.5 65.7 3.1 19.9 18.2 33.7 21.3 53.5-3.1 19.9-19.5 41.8-22.6 61.7-3.1 19.9 6.9 37.7 3.7 57.6z" fill="#ffffff" fill-rule="nonzero" stroke="none" stroke-width="1" stroke-linecap="butt" stroke-linejoin="miter" stroke-miterlimit="10" stroke-dasharray="" stroke-dashoffset="0" font-family="none" font-weight="none" font-size="none" text-anchor="none" style="mix-blend-mode: normal" data-fill-palette-color="tertiary"></path></g><g transform="matrix(1,0,0,1,48,85.16132552891683)"><svg viewBox="0 0 224 189.67734894216633" height="189.67734894216633" width="224"><g><svg viewBox="0 0 224 189.67734894216633" height="189.67734894216633" width="224"><g transform="matrix(1,0,0,1,0,93.6971038454212)"><svg viewBox="0 0 224 95.98024509674514" height="95.98024509674514" width="224"><g id="textblocktransform"><svg viewBox="0 0 224 95.98024509674514" height="95.98024509674514" width="224" id="textblock"><g><svg viewBox="0 0 224 72.8199499650064" height="72.8199499650064" width="224"><rect width="224" height="72.8199499650064" x="0" y="0" opacity="1" fill="#ffffff" data-fill-palette-color="tertiary"></rect><g transform="matrix(1,0,0,1,18.792142380000005,18.792142380000005)"><svg width="186.41571524" viewBox="3.55 -36.5 195.73 37" height="35.235665205006384" data-palette-color="#ffffff"><path d="M26.2-15.6L26.2 0 21.8 0 21.8-14.6Q21.8-18.6 20.38-20.6 18.95-22.6 16.3-22.6L16.3-22.6Q14.6-22.6 12.88-21.7 11.15-20.8 9.85-19.28 8.55-17.75 7.95-15.75L7.95-15.75 7.95 0 3.55 0 3.55-36.5 7.95-36.5 7.95-20.5Q9.5-23.3 12.18-24.93 14.85-26.55 17.95-26.55L17.95-26.55Q20.3-26.55 21.88-25.73 23.45-24.9 24.4-23.4 25.35-21.9 25.78-19.93 26.2-17.95 26.2-15.6L26.2-15.6ZM37.45 0L33.05 0 33.05-26.1 37.45-26.1 37.45 0ZM37.45-31L33.05-31 33.05-36.5 37.45-36.5 37.45-31ZM83.9-15.6L83.9 0 79.5 0 79.5-14.6Q79.5-18.7 78.17-20.65 76.84-22.6 74.25-22.6L74.25-22.6Q71.59-22.6 69.45-20.68 67.3-18.75 66.4-15.7L66.4-15.7 66.4 0 62 0 62-14.6Q62-18.75 60.7-20.68 59.4-22.6 56.8-22.6L56.8-22.6Q54.2-22.6 52.02-20.73 49.85-18.85 48.95-15.75L48.95-15.75 48.95 0 44.55 0 44.55-26.1 48.55-26.1 48.55-20.5Q50.15-23.4 52.7-24.98 55.25-26.55 58.45-26.55L58.45-26.55Q61.7-26.55 63.65-24.78 65.59-23 66.05-20.2L66.05-20.2Q67.8-23.3 70.3-24.93 72.8-26.55 76-26.55L76-26.55Q78.25-26.55 79.77-25.73 81.3-24.9 82.2-23.43 83.09-21.95 83.5-19.95 83.9-17.95 83.9-15.6L83.9-15.6ZM102.49 0L97.69 0 87.44-26.1 92.04-26.1 100.24-4.2 108.44-26.1 112.74-26.1 102.49 0ZM127.79 0.5L127.79 0.5Q124.84 0.5 122.42-0.58 119.99-1.65 118.22-3.53 116.44-5.4 115.47-7.85 114.49-10.3 114.49-13.05L114.49-13.05Q114.49-16.75 116.19-19.8 117.89-22.85 120.92-24.7 123.94-26.55 127.84-26.55L127.84-26.55Q131.79-26.55 134.72-24.68 137.64-22.8 139.27-19.78 140.89-16.75 140.89-13.25L140.89-13.25Q140.89-12.75 140.87-12.28 140.84-11.8 140.79-11.55L140.79-11.55 119.14-11.55Q119.34-9 120.57-7.03 121.79-5.05 123.74-3.93 125.69-2.8 127.94-2.8L127.94-2.8Q130.34-2.8 132.47-4 134.59-5.2 135.39-7.15L135.39-7.15 139.19-6.1Q138.34-4.2 136.67-2.7 134.99-1.2 132.72-0.35 130.44 0.5 127.79 0.5ZM118.99-14.6L118.99-14.6 136.79-14.6Q136.59-17.15 135.34-19.1 134.09-21.05 132.14-22.15 130.19-23.25 127.84-23.25L127.84-23.25Q125.54-23.25 123.59-22.15 121.64-21.05 120.42-19.1 119.19-17.15 118.99-14.6ZM144.09-13L144.09-13Q144.09-16.7 145.61-19.78 147.14-22.85 149.81-24.7 152.49-26.55 155.94-26.55L155.94-26.55Q159.09-26.55 161.59-24.9 164.09-23.25 165.49-20.9L165.49-20.9 165.49-36.5 169.89-36.5 169.89-5Q169.89-4.2 170.21-3.83 170.54-3.45 171.29-3.4L171.29-3.4 171.29 0Q170.04 0.2 169.34 0.2L169.34 0.2Q168.04 0.2 167.06-0.7 166.09-1.6 166.09-2.7L166.09-2.7 166.09-4.9Q164.54-2.4 161.94-0.95 159.34 0.5 156.54 0.5L156.54 0.5Q153.84 0.5 151.56-0.58 149.29-1.65 147.61-3.55 145.94-5.45 145.01-7.88 144.09-10.3 144.09-13ZM165.49-9.15L165.49-9.15 165.49-16.65Q164.89-18.35 163.54-19.73 162.19-21.1 160.51-21.93 158.84-22.75 157.19-22.75L157.19-22.75Q155.24-22.75 153.66-21.93 152.09-21.1 150.96-19.73 149.84-18.35 149.24-16.6 148.64-14.85 148.64-12.95L148.64-12.95Q148.64-11 149.31-9.25 149.99-7.5 151.21-6.15 152.44-4.8 154.06-4.05 155.69-3.3 157.59-3.3L157.59-3.3Q158.79-3.3 160.06-3.75 161.34-4.2 162.49-5 163.64-5.8 164.44-6.88 165.24-7.95 165.49-9.15ZM175.19-7.55L175.19-7.55Q175.19-10.05 176.61-11.88 178.03-13.7 180.53-14.7 183.03-15.7 186.34-15.7L186.34-15.7Q188.09-15.7 190.03-15.43 191.99-15.15 193.49-14.6L193.49-14.6 193.49-16.5Q193.49-19.5 191.69-21.23 189.88-22.95 186.59-22.95L186.59-22.95Q184.44-22.95 182.46-22.18 180.49-21.4 178.28-19.95L178.28-19.95 176.69-23.05Q179.24-24.8 181.78-25.68 184.34-26.55 187.09-26.55L187.09-26.55Q192.09-26.55 194.99-23.78 197.88-21 197.88-16.05L197.88-16.05 197.88-5Q197.88-4.2 198.21-3.83 198.53-3.45 199.28-3.4L199.28-3.4 199.28 0Q198.63 0.1 198.16 0.15 197.69 0.2 197.38 0.2L197.38 0.2Q195.84 0.2 195.06-0.65 194.28-1.5 194.19-2.45L194.19-2.45 194.09-4.1Q192.38-1.9 189.63-0.7 186.88 0.5 184.19 0.5L184.19 0.5Q181.59 0.5 179.53-0.58 177.49-1.65 176.34-3.48 175.19-5.3 175.19-7.55ZM192.19-5.7L192.19-5.7Q192.78-6.4 193.13-7.13 193.49-7.85 193.49-8.35L193.49-8.35 193.49-11.6Q191.94-12.2 190.24-12.53 188.53-12.85 186.88-12.85L186.88-12.85Q183.53-12.85 181.46-11.53 179.38-10.2 179.38-7.9L179.38-7.9Q179.38-6.65 180.06-5.48 180.74-4.3 182.06-3.55 183.38-2.8 185.34-2.8L185.34-2.8Q187.38-2.8 189.24-3.63 191.09-4.45 192.19-5.7Z" opacity="1" transform="matrix(1,0,0,1,0,0)" fill="#000000" class="wordmark-text-0" data-fill-palette-color="quaternary" id="text-0"></path></svg></g></svg></g><g transform="matrix(1,0,0,1,0,82.2160211550064)"><svg viewBox="0 0 224 13.764223941738733" height="13.764223941738733" width="224"><g transform="matrix(1,0,0,1,0,0)"><svg width="224" viewBox="0.5 -36.5 768.95 47.25" height="13.764223941738733" data-palette-color="#551e19"><path d="M23.35-33L28.1-33 16.3-12.9 16.3 0 12.3 0 12.3-12.9 0.5-33 5.25-33 11.65-21.7 14.3-17 16.95-21.7 23.35-33ZM43.6-25.5L43.6-25.5Q47.15-25.5 49.88-23.95 52.6-22.4 54.15-19.48 55.7-16.55 55.7-12.5L55.7-12.5Q55.7-8.45 54.15-5.53 52.6-2.6 49.88-1.05 47.15 0.5 43.6 0.5L43.6 0.5Q40.1 0.5 37.35-1.05 34.6-2.6 33.05-5.53 31.5-8.45 31.5-12.5L31.5-12.5Q31.5-16.55 33.05-19.48 34.6-22.4 37.35-23.95 40.1-25.5 43.6-25.5ZM43.6-22.05L43.6-22.05Q41.05-22.05 39.25-20.9 37.45-19.75 36.48-17.63 35.5-15.5 35.5-12.5L35.5-12.5Q35.5-9.55 36.48-7.4 37.45-5.25 39.25-4.1 41.05-2.95 43.6-2.95L43.6-2.95Q46.15-2.95 47.95-4.1 49.75-5.25 50.73-7.4 51.7-9.55 51.7-12.5L51.7-12.5Q51.7-15.5 50.73-17.63 49.75-19.75 47.95-20.9 46.15-22.05 43.6-22.05ZM72.3 0.5L72.3 0.5Q69.9 0.5 67.78-0.4 65.65-1.3 64.33-3.33 63-5.35 63-8.6L63-8.6 63-25 67-25 67-9.65Q67-5.85 68.65-4.42 70.3-3 73.3-3L73.3-3Q74.7-3 76.05-3.48 77.4-3.95 78.48-4.98 79.55-6 80.18-7.6 80.8-9.2 80.8-11.4L80.8-11.4 80.8-25 84.8-25 84.8 0 81.3 0 81.05-3.8Q79.75-1.55 77.53-0.53 75.3 0.5 72.3 0.5ZM98.1 0L94.1 0 94.1-25 97.35-25 97.9-20.9Q98.95-23.2 100.98-24.35 103-25.5 105.9-25.5L105.9-25.5Q106.55-25.5 107.33-25.4 108.1-25.3 108.65-25L108.65-25 107.95-21.35Q107.4-21.55 106.75-21.65 106.1-21.75 104.9-21.75L104.9-21.75Q103.35-21.75 101.78-20.85 100.2-19.95 99.15-18.13 98.1-16.3 98.1-13.5L98.1-13.5 98.1 0ZM152.6-29.6L152.6-29.6 153.5-26.05Q153.45-26.05 153.35-26.05 153.25-26.05 153.15-26.05L153.15-26.05Q150.7-26.05 149.38-25.08 148.05-24.1 148.05-21.95L148.05-21.95 145.6-23.2Q145.6-25.15 146.5-26.6 147.4-28.05 148.95-28.83 150.5-29.6 152.35-29.6L152.35-29.6Q152.4-29.6 152.48-29.6 152.55-29.6 152.6-29.6ZM137.7-3.2L145-3.2Q148.55-3.2 150.55-1.58 152.55 0.05 152.55 2.75L152.55 2.75Q152.55 5.2 150.93 7 149.3 8.8 146.58 9.78 143.85 10.75 140.45 10.75L140.45 10.75Q134.55 10.75 131.63 8.75 128.7 6.75 128.7 3.95L128.7 3.95Q128.7 1.95 130.03 0.38 131.35-1.2 134.5-1.4L134.5-1.4 134.15-0.65Q132.45-1.1 131.28-2.18 130.1-3.25 130.1-5.3L130.1-5.3Q130.1-7.35 131.63-8.83 133.15-10.3 136.15-10.65L136.15-10.65 138.8-9.3 138.3-9.3Q135.85-9.05 134.83-8.08 133.8-7.1 133.8-5.95L133.8-5.95Q133.8-4.55 134.83-3.88 135.85-3.2 137.7-3.2L137.7-3.2ZM140.4 7.4L140.4 7.4Q143.3 7.4 145.18 6.8 147.05 6.2 147.95 5.25 148.85 4.3 148.85 3.2L148.85 3.2Q148.85 1.85 147.78 1.05 146.7 0.25 143.9 0.25L143.9 0.25 136.2 0.25Q134.6 0.25 133.5 1.07 132.4 1.9 132.4 3.35L132.4 3.35Q132.4 5.2 134.53 6.3 136.65 7.4 140.4 7.4ZM140.05-25.5L140.05-25.5Q143.05-25.5 145.38-24.43 147.7-23.35 149-21.45 150.3-19.55 150.3-17.05L150.3-17.05Q150.3-14.6 149-12.68 147.7-10.75 145.38-9.68 143.05-8.6 140.05-8.6L140.05-8.6Q135.1-8.6 132.45-10.98 129.8-13.35 129.8-17.05L129.8-17.05Q129.8-19.55 131.13-21.45 132.45-23.35 134.75-24.43 137.05-25.5 140.05-25.5ZM140.05-22.25L140.05-22.25Q137.45-22.25 135.7-20.83 133.95-19.4 133.95-17.05L133.95-17.05Q133.95-14.75 135.7-13.3 137.45-11.85 140.05-11.85L140.05-11.85Q142.65-11.85 144.4-13.3 146.15-14.75 146.15-17.05L146.15-17.05Q146.15-19.4 144.4-20.83 142.65-22.25 140.05-22.25ZM172.75-9.25L172.75-16.15Q172.75-18.95 171.25-20.48 169.75-22 167-22L167-22Q164.4-22 162.6-20.88 160.8-19.75 159.95-17.25L159.95-17.25 156.7-19.25Q157.7-22.05 160.4-23.78 163.1-25.5 167.1-25.5L167.1-25.5Q169.8-25.5 172-24.58 174.2-23.65 175.48-21.78 176.75-19.9 176.75-16.95L176.75-16.95 176.75-4.85Q176.75-3.05 178.65-3.05L178.65-3.05Q179.6-3.05 180.5-3.3L180.5-3.3 180.3-0.15Q179.3 0.35 177.7 0.35L177.7 0.35Q176.25 0.35 175.1-0.2 173.95-0.75 173.3-1.88 172.65-3 172.65-4.7L172.65-4.7 172.65-5.2 173.65-5.05Q173.05-3.1 171.6-1.88 170.15-0.65 168.35-0.08 166.55 0.5 164.8 0.5L164.8 0.5Q162.6 0.5 160.7-0.25 158.8-1 157.68-2.53 156.55-4.05 156.55-6.3L156.55-6.3Q156.55-9.1 158.43-10.93 160.3-12.75 163.65-13.4L163.65-13.4 173.55-15.35 173.55-12.05 165.5-10.4Q163.05-9.9 161.85-9 160.65-8.1 160.65-6.5L160.65-6.5Q160.65-4.95 161.88-3.98 163.1-3 165.35-3L165.35-3Q166.8-3 168.13-3.38 169.45-3.75 170.5-4.53 171.55-5.3 172.15-6.48 172.75-7.65 172.75-9.25L172.75-9.25ZM188.35-31L192.35-32.1 192.35-6.9Q192.35-5.05 193.4-4.15 194.45-3.25 196.1-3.25L196.1-3.25Q197.55-3.25 198.6-3.75 199.65-4.25 200.5-5.1L200.5-5.1 201.9-1.75Q200.75-0.7 199.18-0.1 197.6 0.5 195.55 0.5L195.55 0.5Q193.65 0.5 192-0.18 190.35-0.85 189.38-2.33 188.4-3.8 188.35-6.2L188.35-6.2 188.35-31ZM183.35-25L201.45-25 201.45-21.55 183.35-21.55 183.35-25ZM217.85 0.5L217.85 0.5Q214.3 0.5 211.53-1.05 208.75-2.6 207.2-5.53 205.65-8.45 205.65-12.5L205.65-12.5Q205.65-16.55 207.2-19.48 208.75-22.4 211.45-23.95 214.15-25.5 217.6-25.5L217.6-25.5Q221.1-25.5 223.58-24 226.05-22.5 227.35-19.93 228.65-17.35 228.65-14.15L228.65-14.15Q228.65-13.3 228.6-12.6 228.55-11.9 228.45-11.35L228.45-11.35 208.25-11.35 208.25-14.9 226.7-14.9 224.65-14.5Q224.65-18.1 222.68-20.05 220.7-22 217.5-22L217.5-22Q215.05-22 213.28-20.88 211.5-19.75 210.53-17.63 209.55-15.5 209.55-12.5L209.55-12.5Q209.55-9.55 210.55-7.4 211.55-5.25 213.38-4.13 215.2-3 217.75-3L217.75-3Q220.5-3 222.23-4.05 223.95-5.1 225-6.9L225-6.9 228.15-5.05Q227.2-3.35 225.73-2.1 224.25-0.85 222.28-0.18 220.3 0.5 217.85 0.5ZM261.3-4.65L267.6-25 272.05-25 263.35 0 259.35 0 252.3-19.9 245.65 0 241.65 0 232.95-25 237.4-25 243.7-4.65 250.5-25 254.5-25 261.3-4.65ZM292.65-9.25L292.65-16.15Q292.65-18.95 291.15-20.48 289.65-22 286.9-22L286.9-22Q284.3-22 282.5-20.88 280.7-19.75 279.85-17.25L279.85-17.25 276.6-19.25Q277.6-22.05 280.3-23.78 283-25.5 287-25.5L287-25.5Q289.7-25.5 291.9-24.58 294.1-23.65 295.38-21.78 296.65-19.9 296.65-16.95L296.65-16.95 296.65-4.85Q296.65-3.05 298.55-3.05L298.55-3.05Q299.5-3.05 300.4-3.3L300.4-3.3 300.2-0.15Q299.2 0.35 297.6 0.35L297.6 0.35Q296.15 0.35 295-0.2 293.85-0.75 293.2-1.88 292.55-3 292.55-4.7L292.55-4.7 292.55-5.2 293.55-5.05Q292.95-3.1 291.5-1.88 290.05-0.65 288.25-0.08 286.45 0.5 284.7 0.5L284.7 0.5Q282.5 0.5 280.6-0.25 278.7-1 277.58-2.53 276.45-4.05 276.45-6.3L276.45-6.3Q276.45-9.1 278.33-10.93 280.2-12.75 283.55-13.4L283.55-13.4 293.45-15.35 293.45-12.05 285.4-10.4Q282.95-9.9 281.75-9 280.55-8.1 280.55-6.5L280.55-6.5Q280.55-4.95 281.78-3.98 283-3 285.25-3L285.25-3Q286.7-3 288.03-3.38 289.35-3.75 290.4-4.53 291.45-5.3 292.05-6.48 292.65-7.65 292.65-9.25L292.65-9.25ZM322.6-25L326.9-25 315.15 4.2Q314.2 6.65 313.08 8.08 311.95 9.5 310.58 10.13 309.2 10.75 307.4 10.75L307.4 10.75Q305.7 10.75 304.28 10.28 302.85 9.8 301.75 9L301.75 9 302.85 5.5Q303.85 6.4 304.98 6.83 306.1 7.25 307.2 7.25L307.2 7.25Q308.5 7.25 309.65 6.45 310.8 5.65 311.75 3.2L311.75 3.2 313.05-0.05 310.55-6 302.6-25 307.15-25 313.4-8.7 314.95-4.25 316.75-9.2 322.6-25ZM351.1-31L355.1-32.1 355.1-6.9Q355.1-5.05 356.15-4.15 357.2-3.25 358.85-3.25L358.85-3.25Q360.3-3.25 361.35-3.75 362.4-4.25 363.25-5.1L363.25-5.1 364.65-1.75Q363.5-0.7 361.93-0.1 360.35 0.5 358.3 0.5L358.3 0.5Q356.4 0.5 354.75-0.18 353.1-0.85 352.13-2.33 351.15-3.8 351.1-6.2L351.1-6.2 351.1-31ZM346.1-25L364.2-25 364.2-21.55 346.1-21.55 346.1-25ZM380.5-25.5L380.5-25.5Q384.05-25.5 386.78-23.95 389.5-22.4 391.05-19.48 392.6-16.55 392.6-12.5L392.6-12.5Q392.6-8.45 391.05-5.53 389.5-2.6 386.78-1.05 384.05 0.5 380.5 0.5L380.5 0.5Q377 0.5 374.25-1.05 371.5-2.6 369.95-5.53 368.4-8.45 368.4-12.5L368.4-12.5Q368.4-16.55 369.95-19.48 371.5-22.4 374.25-23.95 377-25.5 380.5-25.5ZM380.5-22.05L380.5-22.05Q377.95-22.05 376.15-20.9 374.35-19.75 373.38-17.63 372.4-15.5 372.4-12.5L372.4-12.5Q372.4-9.55 373.38-7.4 374.35-5.25 376.15-4.1 377.95-2.95 380.5-2.95L380.5-2.95Q383.05-2.95 384.85-4.1 386.65-5.25 387.63-7.4 388.6-9.55 388.6-12.5L388.6-12.5Q388.6-15.5 387.63-17.63 386.65-19.75 384.85-20.9 383.05-22.05 380.5-22.05ZM419.1-31L423.1-32.1 423.1-6.9Q423.1-5.05 424.15-4.15 425.2-3.25 426.85-3.25L426.85-3.25Q428.3-3.25 429.35-3.75 430.4-4.25 431.25-5.1L431.25-5.1 432.65-1.75Q431.5-0.7 429.93-0.1 428.35 0.5 426.3 0.5L426.3 0.5Q424.4 0.5 422.75-0.18 421.1-0.85 420.13-2.33 419.15-3.8 419.1-6.2L419.1-6.2 419.1-31ZM414.1-25L432.2-25 432.2-21.55 414.1-21.55 414.1-25ZM442.15 0L438.15 0 438.15-36.5 442.15-36.5 442.15-21.25Q443.45-23.5 445.6-24.5 447.75-25.5 450.3-25.5L450.3-25.5Q453-25.5 455.2-24.48 457.4-23.45 458.73-21.35 460.05-19.25 460.05-16L460.05-16 460.05 0 456.05 0 456.05-14.6Q456.05-18.75 454.28-20.38 452.5-22 449.9-22L449.9-22Q448.1-22 446.3-21.15 444.5-20.3 443.33-18.38 442.15-16.45 442.15-13.25L442.15-13.25 442.15 0ZM479.55 0.5L479.55 0.5Q476 0.5 473.23-1.05 470.45-2.6 468.9-5.53 467.35-8.45 467.35-12.5L467.35-12.5Q467.35-16.55 468.9-19.48 470.45-22.4 473.15-23.95 475.85-25.5 479.3-25.5L479.3-25.5Q482.8-25.5 485.28-24 487.75-22.5 489.05-19.93 490.35-17.35 490.35-14.15L490.35-14.15Q490.35-13.3 490.3-12.6 490.25-11.9 490.15-11.35L490.15-11.35 469.95-11.35 469.95-14.9 488.4-14.9 486.35-14.5Q486.35-18.1 484.38-20.05 482.4-22 479.2-22L479.2-22Q476.75-22 474.98-20.88 473.2-19.75 472.23-17.63 471.25-15.5 471.25-12.5L471.25-12.5Q471.25-9.55 472.25-7.4 473.25-5.25 475.08-4.13 476.9-3 479.45-3L479.45-3Q482.2-3 483.93-4.05 485.65-5.1 486.7-6.9L486.7-6.9 489.85-5.05Q488.9-3.35 487.43-2.1 485.95-0.85 483.98-0.18 482 0.5 479.55 0.5ZM531.9-25L536.95-25 526.15-14.2 525.2-13.25 517-5.05 517-10.05 531.9-25ZM515-36.5L519-36.5 519 0 515 0 515-36.5ZM523.15-14L526.5-16.25 537.55 0 532.7 0 523.15-14ZM547.35 0L543.35 0 543.35-25 546.85-25 547.2-19.4 546.55-19.95Q547.35-21.95 548.7-23.18 550.05-24.4 551.83-24.95 553.6-25.5 555.5-25.5L555.5-25.5Q558.2-25.5 560.4-24.48 562.6-23.45 563.93-21.35 565.25-19.25 565.25-16L565.25-16 565.25 0 561.25 0 561.25-14.6Q561.25-18.75 559.48-20.38 557.7-22 555.1-22L555.1-22Q553.3-22 551.5-21.15 549.7-20.3 548.53-18.4 547.35-16.5 547.35-13.3L547.35-13.3 547.35 0ZM584.65-25.5L584.65-25.5Q588.2-25.5 590.93-23.95 593.65-22.4 595.2-19.48 596.75-16.55 596.75-12.5L596.75-12.5Q596.75-8.45 595.2-5.53 593.65-2.6 590.93-1.05 588.2 0.5 584.65 0.5L584.65 0.5Q581.15 0.5 578.4-1.05 575.65-2.6 574.1-5.53 572.55-8.45 572.55-12.5L572.55-12.5Q572.55-16.55 574.1-19.48 575.65-22.4 578.4-23.95 581.15-25.5 584.65-25.5ZM584.65-22.05L584.65-22.05Q582.1-22.05 580.3-20.9 578.5-19.75 577.53-17.63 576.55-15.5 576.55-12.5L576.55-12.5Q576.55-9.55 577.53-7.4 578.5-5.25 580.3-4.1 582.1-2.95 584.65-2.95L584.65-2.95Q587.2-2.95 589-4.1 590.8-5.25 591.78-7.4 592.75-9.55 592.75-12.5L592.75-12.5Q592.75-15.5 591.78-17.63 590.8-19.75 589-20.9 587.2-22.05 584.65-22.05ZM629.35-4.65L635.65-25 640.1-25 631.4 0 627.4 0 620.35-19.9 613.7 0 609.7 0 601-25 605.45-25 611.75-4.65 618.55-25 622.55-25 629.35-4.65ZM645.9-36.5L649.9-36.5 649.9-6.35Q649.9-4.45 650.6-3.73 651.3-3 652.85-3L652.85-3Q653.85-3 654.5-3.15 655.15-3.3 656.25-3.7L656.25-3.7 655.6-0.2Q654.8 0.15 653.85 0.33 652.9 0.5 651.9 0.5L651.9 0.5Q648.85 0.5 647.38-1.15 645.9-2.8 645.9-6.2L645.9-6.2 645.9-36.5ZM671.85 0.5L671.85 0.5Q668.3 0.5 665.52-1.05 662.75-2.6 661.2-5.53 659.65-8.45 659.65-12.5L659.65-12.5Q659.65-16.55 661.2-19.48 662.75-22.4 665.45-23.95 668.15-25.5 671.6-25.5L671.6-25.5Q675.1-25.5 677.58-24 680.05-22.5 681.35-19.93 682.65-17.35 682.65-14.15L682.65-14.15Q682.65-13.3 682.6-12.6 682.55-11.9 682.45-11.35L682.45-11.35 662.25-11.35 662.25-14.9 680.7-14.9 678.65-14.5Q678.65-18.1 676.67-20.05 674.7-22 671.5-22L671.5-22Q669.05-22 667.27-20.88 665.5-19.75 664.52-17.63 663.55-15.5 663.55-12.5L663.55-12.5Q663.55-9.55 664.55-7.4 665.55-5.25 667.38-4.13 669.2-3 671.75-3L671.75-3Q674.5-3 676.23-4.05 677.95-5.1 679-6.9L679-6.9 682.15-5.05Q681.2-3.35 679.73-2.1 678.25-0.85 676.27-0.18 674.3 0.5 671.85 0.5ZM700 0.5L700 0.5Q696.9 0.5 694.3-1.05 691.7-2.6 690.15-5.53 688.6-8.45 688.6-12.5L688.6-12.5Q688.6-16.65 690.25-19.55 691.9-22.45 694.6-23.98 697.3-25.5 700.4-25.5L700.4-25.5Q703.5-25.5 705.77-23.9 708.05-22.3 708.8-19.65L708.8-19.65 708.3-19.3 708.3-36.5 712.3-36.5 712.3 0 708.8 0 708.45-6.05 709-6.35Q708.65-4.15 707.33-2.63 706-1.1 704.08-0.3 702.15 0.5 700 0.5ZM700.4-3L700.4-3Q702.8-3 704.58-4.2 706.35-5.4 707.33-7.63 708.3-9.85 708.3-12.85L708.3-12.85Q708.3-15.7 707.33-17.75 706.35-19.8 704.63-20.9 702.9-22 700.6-22L700.6-22Q696.8-22 694.7-19.4 692.6-16.8 692.6-12.5L692.6-12.5Q692.6-8.2 694.65-5.6 696.7-3 700.4-3ZM742.65-29.6L742.65-29.6 743.55-26.05Q743.5-26.05 743.4-26.05 743.3-26.05 743.2-26.05L743.2-26.05Q740.75-26.05 739.43-25.08 738.1-24.1 738.1-21.95L738.1-21.95 735.65-23.2Q735.65-25.15 736.55-26.6 737.45-28.05 739-28.83 740.55-29.6 742.4-29.6L742.4-29.6Q742.45-29.6 742.53-29.6 742.6-29.6 742.65-29.6ZM727.75-3.2L735.05-3.2Q738.6-3.2 740.6-1.58 742.6 0.05 742.6 2.75L742.6 2.75Q742.6 5.2 740.98 7 739.35 8.8 736.63 9.78 733.9 10.75 730.5 10.75L730.5 10.75Q724.6 10.75 721.68 8.75 718.75 6.75 718.75 3.95L718.75 3.95Q718.75 1.95 720.08 0.38 721.4-1.2 724.55-1.4L724.55-1.4 724.2-0.65Q722.5-1.1 721.33-2.18 720.15-3.25 720.15-5.3L720.15-5.3Q720.15-7.35 721.68-8.83 723.2-10.3 726.2-10.65L726.2-10.65 728.85-9.3 728.35-9.3Q725.9-9.05 724.88-8.08 723.85-7.1 723.85-5.95L723.85-5.95Q723.85-4.55 724.88-3.88 725.9-3.2 727.75-3.2L727.75-3.2ZM730.45 7.4L730.45 7.4Q733.35 7.4 735.23 6.8 737.1 6.2 738 5.25 738.9 4.3 738.9 3.2L738.9 3.2Q738.9 1.85 737.83 1.05 736.75 0.25 733.95 0.25L733.95 0.25 726.25 0.25Q724.65 0.25 723.55 1.07 722.45 1.9 722.45 3.35L722.45 3.35Q722.45 5.2 724.58 6.3 726.7 7.4 730.45 7.4ZM730.1-25.5L730.1-25.5Q733.1-25.5 735.43-24.43 737.75-23.35 739.05-21.45 740.35-19.55 740.35-17.05L740.35-17.05Q740.35-14.6 739.05-12.68 737.75-10.75 735.43-9.68 733.1-8.6 730.1-8.6L730.1-8.6Q725.15-8.6 722.5-10.98 719.85-13.35 719.85-17.05L719.85-17.05Q719.85-19.55 721.18-21.45 722.5-23.35 724.8-24.43 727.1-25.5 730.1-25.5ZM730.1-22.25L730.1-22.25Q727.5-22.25 725.75-20.83 724-19.4 724-17.05L724-17.05Q724-14.75 725.75-13.3 727.5-11.85 730.1-11.85L730.1-11.85Q732.7-11.85 734.45-13.3 736.2-14.75 736.2-17.05L736.2-17.05Q736.2-19.4 734.45-20.83 732.7-22.25 730.1-22.25ZM758.65 0.5L758.65 0.5Q755.1 0.5 752.33-1.05 749.55-2.6 748-5.53 746.45-8.45 746.45-12.5L746.45-12.5Q746.45-16.55 748-19.48 749.55-22.4 752.25-23.95 754.95-25.5 758.4-25.5L758.4-25.5Q761.9-25.5 764.38-24 766.85-22.5 768.15-19.93 769.45-17.35 769.45-14.15L769.45-14.15Q769.45-13.3 769.4-12.6 769.35-11.9 769.25-11.35L769.25-11.35 749.05-11.35 749.05-14.9 767.5-14.9 765.45-14.5Q765.45-18.1 763.48-20.05 761.5-22 758.3-22L758.3-22Q755.85-22 754.08-20.88 752.3-19.75 751.33-17.63 750.35-15.5 750.35-12.5L750.35-12.5Q750.35-9.55 751.35-7.4 752.35-5.25 754.18-4.13 756-3 758.55-3L758.55-3Q761.3-3 763.03-4.05 764.75-5.1 765.8-6.9L765.8-6.9 768.95-5.05Q768-3.35 766.53-2.1 765.05-0.85 763.08-0.18 761.1 0.5 758.65 0.5Z" opacity="1" transform="matrix(1,0,0,1,0,0)" fill="#ffffff" class="slogan-text-1" data-fill-palette-color="secondary" id="text-1"></path></svg></g></svg></g></svg></g></svg></g><g transform="matrix(1,0,0,1,54.550720000000005,0)"><svg viewBox="0 0 114.89855999999999 84.3010326554212" height="84.3010326554212" width="114.89855999999999"><g><svg xmlns="http://www.w3.org/2000/svg" xmlns:xlink="http://www.w3.org/1999/xlink" version="1.0" x="0" y="0" viewBox="13.200200099999984 23.1665 73.59959690000001 53.99999810000001" enable-background="new 0 0 100 100" xml:space="preserve" height="84.3010326554212" width="114.89855999999999" class="icon-icon-0" data-fill-palette-color="accent" id="icon-0"><g fill="#01057c" data-fill-palette-color="accent"><g fill="#01057c" data-fill-palette-color="accent"><path d="M85.6 28.167h-4.8c-0.033 0-0.061 0.016-0.094 0.019v-3.819c0-0.663-0.537-1.2-1.2-1.2-18.494 0-27.115 4.129-29.506 5.528-2.391-1.399-11.012-5.529-29.506-5.528-0.663 0-1.2 0.537-1.2 1.2v3.819c-0.033-0.003-0.06-0.019-0.094-0.019h-4.8c-0.663 0-1.2 0.537-1.2 1.2v46.6c0 0.663 0.537 1.2 1.2 1.199h21.2c0.663 0 1.2-0.537 1.2-1.199 0-0.663-0.537-1.2-1.2-1.2H15.6V30.567h3.6c0.033 0 0.061-0.016 0.094-0.019v38.471c0 0.663 0.537 1.2 1.2 1.2 20.808 0 28.675 5.429 28.801 5.518 0.041 0.029 0.087 0.042 0.129 0.066 0.023 0.013 0.043 0.03 0.067 0.041 0.029 0.014 0.057 0.026 0.088 0.037 0.137 0.052 0.278 0.085 0.42 0.085l0 0c0 0 0 0 0.001 0 0.014 0 0.026-0.008 0.04-0.008 0.128-0.004 0.254-0.031 0.377-0.076 0.029-0.011 0.057-0.02 0.084-0.033 0.031-0.014 0.056-0.035 0.086-0.052 0.039-0.022 0.081-0.033 0.117-0.059 0.077-0.055 7.928-5.519 28.802-5.519 0.663 0 1.2-0.537 1.2-1.2V30.548c0.033 0.003 0.06 0.019 0.094 0.019h3.6v44.2H62c-0.663 0-1.2 0.537-1.2 1.199 0 0.663 0.537 1.2 1.2 1.2h23.6c0.663 0 1.2-0.537 1.2-1.2V29.367C86.8 28.704 86.263 28.167 85.6 28.167zM21.694 25.572c17.172 0.176 25.156 4.082 27.106 5.208v41.927c-3.418-1.685-11.697-4.731-27.106-4.882V25.572zM78.306 67.825c-15.409 0.151-23.688 3.197-27.106 4.882V30.775c1.936-1.132 9.837-5.029 27.106-5.203V67.825z" fill="#ffffff" data-fill-palette-color="accent"></path><path d="M28.173 36.586c5.667 0.406 10.675 1.271 14.884 2.571 0.118 0.036 0.237 0.054 0.355 0.054 0.512 0 0.987-0.331 1.146-0.847 0.196-0.633-0.159-1.305-0.793-1.501-4.384-1.354-9.573-2.253-15.421-2.671-0.653-0.039-1.236 0.451-1.283 1.111C27.014 35.964 27.511 36.538 28.173 36.586z" fill="#ffffff" data-fill-palette-color="accent"></path><path d="M43.765 44.333c-4.384-1.354-9.573-2.253-15.421-2.672-0.653-0.035-1.236 0.451-1.283 1.112-0.048 0.661 0.45 1.235 1.112 1.282 5.667 0.406 10.675 1.271 14.884 2.571 0.118 0.036 0.237 0.054 0.355 0.054 0.512 0 0.987-0.331 1.146-0.846C44.753 45.201 44.398 44.529 43.765 44.333z" fill="#ffffff" data-fill-palette-color="accent"></path><path d="M43.765 51.802c-4.384-1.353-9.573-2.253-15.421-2.671-0.653-0.032-1.236 0.45-1.283 1.111-0.048 0.661 0.45 1.235 1.112 1.283 5.667 0.406 10.675 1.271 14.884 2.571 0.118 0.036 0.237 0.054 0.355 0.054 0.512 0 0.987-0.331 1.146-0.847C44.753 52.67 44.398 51.998 43.765 51.802z" fill="#ffffff" data-fill-palette-color="accent"></path><path d="M43.765 59.272c-4.384-1.353-9.573-2.253-15.421-2.672-0.653-0.041-1.236 0.451-1.283 1.112-0.048 0.661 0.45 1.235 1.112 1.282 5.667 0.406 10.675 1.271 14.884 2.571 0.118 0.036 0.237 0.054 0.355 0.054 0.512 0 0.987-0.331 1.146-0.846C44.753 60.14 44.398 59.468 43.765 59.272z" fill="#ffffff" data-fill-palette-color="accent"></path><path d="M56.588 39.211c0.117 0 0.237-0.018 0.355-0.054 4.21-1.3 9.218-2.165 14.884-2.571 0.661-0.047 1.159-0.622 1.112-1.283-0.047-0.661-0.619-1.148-1.283-1.111-5.849 0.419-11.037 1.318-15.421 2.671-0.633 0.196-0.988 0.868-0.793 1.501C55.602 38.88 56.076 39.211 56.588 39.211z" fill="#ffffff" data-fill-palette-color="accent"></path><path d="M56.588 46.68c0.117 0 0.237-0.018 0.355-0.054 4.21-1.3 9.218-2.165 14.884-2.571 0.661-0.047 1.159-0.622 1.112-1.282-0.047-0.661-0.619-1.144-1.283-1.112-5.849 0.419-11.037 1.318-15.421 2.672-0.633 0.196-0.988 0.868-0.793 1.501C55.602 46.349 56.076 46.68 56.588 46.68z" fill="#ffffff" data-fill-palette-color="accent"></path><path d="M56.588 54.15c0.117 0 0.237-0.018 0.355-0.054 4.21-1.3 9.218-2.165 14.884-2.571 0.661-0.047 1.159-0.622 1.112-1.283-0.047-0.662-0.619-1.141-1.283-1.111-5.849 0.419-11.037 1.318-15.421 2.671-0.633 0.196-0.988 0.868-0.793 1.501C55.602 53.819 56.076 54.15 56.588 54.15z" fill="#ffffff" data-fill-palette-color="accent"></path><path d="M71.656 56.6c-5.849 0.419-11.037 1.318-15.421 2.672-0.633 0.196-0.988 0.868-0.793 1.501 0.159 0.516 0.634 0.847 1.146 0.846 0.117 0 0.237-0.018 0.355-0.054 4.21-1.3 9.218-2.165 14.884-2.571 0.661-0.047 1.159-0.622 1.112-1.282C72.891 57.051 72.32 56.561 71.656 56.6z" fill="#ffffff" data-fill-palette-color="accent"></path></g></g></svg></g></svg></g><g></g></svg></g></svg></g></svg></g><defs></defs></svg><rect width="320" height="360" fill="none" stroke="none" visibility="hidden"></rect></g></svg></g></svg>